<svg xmlns="http://www.w3.org/2000/svg" width="256" height="256" shape-rendering="geometricPrecision">
<path d="M 0.00 0.00 L 0.00 31.00 L 31.00 31.00 L 31.00 0.00 Z" fill="#3D024F" stroke="none" />
<path d="M 29.00 0.00 L 29.00 31.00 L 32.00 31.00 L 32.00 0.00 Z" fill="#320054" stroke="none" />
<path d="M 30.00 0.00 L 30.00 31.00 L 33.00 31.00 L 33.00 0.00 Z" fill="#7A4F32" stroke="none" />
<path d="M 31.00 0.00 L 31.00 33.00 L 34.00 33.00 L 34.00 0.00 Z" fill="#CDB80A" stroke="none" />
<path d="M 0.00 32.00 L 0.00 65.00 L 95.00 65.00 L 95.00 32.00 L 66.00 32.00 L 65.00 31.00 L 65.00 0.00 L 32.00 0.00 L 32.00 30.00 L 30.00 32.00 Z" fill="#C2AA0F" stroke="none" />
<path d="M 63.00 0.00 L 63.00 31.00 L 66.00 31.00 L 66.00 0.00 Z" fill="#9922AB" stroke="none" />
<path d="M 64.00 0.00 L 64.00 31.00 L 65.00 32.00 L 95.00 32.00 L 96.00 31.00 L 96.00 0.00 Z" fill="#8C00DC" stroke="none" />
<path d="M 94.00 0.00 L 94.00 32.00 L 97.00 32.00 L 97.00 0.00 Z" fill="#A64E79" stroke="none" />
<path d="M 95.00 0.00 L 95.00 31.00 L 98.00 31.00 L 98.00 0.00 Z" fill="#C6B800" stroke="none" />
<path d="M 96.00 0.00 L 96.00 31.00 L 159.00 31.00 L 159.00 0.00 Z" fill="#C2AA0F" stroke="none" />
<path d="M 157.00 0.00 L 157.00 31.00 L 160.00 31.00 L 160.00 0.00 Z" fill="#C6B800" stroke="none" />
<path d="M 158.00 0.00 L 158.00 32.00 L 161.00 32.00 L 161.00 0.00 Z" fill="#AB5C68" stroke="none" />
<path d="M 159.00 0.00 L 159.00 31.00 L 162.00 31.00 L 162.00 0.00 Z" fill="#8B00E2" stroke="none" />
<path d="M 160.00 0.00 L 160.00 31.00 L 193.00 31.00 L 193.00 0.00 Z" fill="#8F00D2" stroke="none" />
<path d="M 191.00 0.00 L 191.00 32.00 L 194.00 32.00 L 194.00 0.00 Z" fill="#B88836" stroke="none" />
<path d="M 192.00 0.00 L 192.00 33.00 L 195.00 33.00 L 195.00 0.00 Z" fill="#C5B305" stroke="none" />
<path d="M 160.00 32.00 L 160.00 65.00 L 255.00 65.00 L 255.00 32.00 L 226.00 32.00 L 225.00 31.00 L 224.00 31.00 L 223.00 30.00 L 223.00 0.00 L 193.00 0.00 L 193.00 30.00 L 192.00 31.00 L 191.00 31.00 L 190.00 32.00 Z" fill="#C2AA0F" stroke="none" />
<path d="M 221.00 0.00 L 221.00 33.00 L 224.00 33.00 L 224.00 0.00 Z" fill="#CDB80A" stroke="none" />
<path d="M 222.00 0.00 L 222.00 32.00 L 225.00 32.00 L 225.00 0.00 Z" fill="#855D2C" stroke="none" />
<path d="M 223.00 0.00 L 223.00 31.00 L 226.00 31.00 L 226.00 0.00 Z" fill="#320054" stroke="none" />
<path d="M 224.00 0.00 L 224.00 31.00 L 255.00 31.00 L 255.00 0.00 Z" fill="#3D024F" stroke="none" />
<path d="M 0.00 29.00 L 0.00 32.00 L 31.00 32.00 L 31.00 29.00 Z" fill="#320054" stroke="none" />
<path d="M 96.00 29.00 L 96.00 32.00 L 159.00 32.00 L 159.00 29.00 Z" fill="#BFB800" stroke="none" />
<path d="M 160.00 29.00 L 160.00 32.00 L 193.00 32.00 L 193.00 29.00 Z" fill="#8B00E2" stroke="none" />
<path d="M 224.00 29.00 L 224.00 32.00 L 255.00 32.00 L 255.00 29.00 Z" fill="#320054" stroke="none" />
<path d="M 0.00 30.00 L 0.00 33.00 L 32.00 33.00 L 32.00 30.00 Z" fill="#7A4F32" stroke="none" />
<path d="M 64.00 30.00 L 64.00 33.00 L 96.00 33.00 L 96.00 30.00 Z" fill="#A54E7E" stroke="none" />
<path d="M 96.00 30.00 L 96.00 33.00 L 159.00 33.00 L 159.00 30.00 Z" fill="#D05C7D" stroke="none" />
<path d="M 159.00 30.00 L 159.00 33.00 L 193.00 33.00 L 193.00 30.00 Z" fill="#A3547B" stroke="none" />
<path d="M 223.00 30.00 L 223.00 33.00 L 255.00 33.00 L 255.00 30.00 Z" fill="#744E34" stroke="none" />
<path d="M 0.00 31.00 L 0.00 34.00 L 33.00 34.00 L 33.00 31.00 Z" fill="#CDB80A" stroke="none" />
<path d="M 63.00 31.00 L 63.00 34.00 L 95.00 34.00 L 95.00 31.00 Z" fill="#C5B502" stroke="none" />
<path d="M 94.00 31.00 L 94.00 65.00 L 97.00 65.00 L 97.00 31.00 Z" fill="#D35D7D" stroke="none" />
<path d="M 95.00 31.00 L 95.00 65.00 L 160.00 65.00 L 160.00 31.00 Z" fill="#E600FF" stroke="none" />
<path d="M 158.00 31.00 L 158.00 65.00 L 161.00 65.00 L 161.00 31.00 Z" fill="#D64D94" stroke="none" />
<path d="M 160.00 31.00 L 160.00 34.00 L 193.00 34.00 L 193.00 31.00 Z" fill="#C6B800" stroke="none" />
<path d="M 223.00 31.00 L 223.00 34.00 L 255.00 34.00 L 255.00 31.00 Z" fill="#CEB809" stroke="none" />
<path d="M 93.00 32.00 L 93.00 65.00 L 96.00 65.00 L 96.00 32.00 Z" fill="#BFB800" stroke="none" />
<path d="M 159.00 32.00 L 159.00 65.00 L 162.00 65.00 L 162.00 32.00 Z" fill="#BFB800" stroke="none" />
<path d="M 0.00 63.00 L 0.00 66.00 L 96.00 66.00 L 96.00 63.00 Z" fill="#9922AB" stroke="none" />
<path d="M 95.00 63.00 L 95.00 66.00 L 160.00 66.00 L 160.00 63.00 Z" fill="#A000DB" stroke="none" />
<path d="M 159.00 63.00 L 159.00 66.00 L 255.00 66.00 L 255.00 63.00 Z" fill="#9925A8" stroke="none" />
<path d="M 0.00 64.00 L 0.00 129.00 L 30.00 129.00 L 32.00 131.00 L 32.00 157.00 L 29.00 160.00 L 0.00 160.00 L 0.00 255.00 L 255.00 255.00 L 255.00 160.00 L 226.00 160.00 L 223.00 157.00 L 223.00 131.00 L 225.00 129.00 L 255.00 129.00 L 255.00 64.00 Z" fill="#8C00DC" stroke="none" />
<path d="M 0.00 127.00 L 0.00 130.00 L 31.00 130.00 L 31.00 127.00 Z" fill="#37024B" stroke="none" />
<path d="M 224.00 127.00 L 224.00 130.00 L 255.00 130.00 L 255.00 127.00 Z" fill="#37024B" stroke="none" />
<path d="M 0.00 128.00 L 0.00 160.00 L 31.00 160.00 L 32.00 159.00 L 32.00 129.00 L 31.00 128.00 Z" fill="#1B0220" stroke="none" />
<path d="M 30.00 128.00 L 30.00 160.00 L 33.00 160.00 L 33.00 128.00 Z" fill="#500171" stroke="none" />
<path d="M 31.00 128.00 L 31.00 160.00 L 34.00 160.00 L 34.00 128.00 Z" fill="#9800E1" stroke="none" />
<path d="M 221.00 128.00 L 221.00 160.00 L 224.00 160.00 L 224.00 128.00 Z" fill="#9800E1" stroke="none" />
<path d="M 222.00 128.00 L 222.00 160.00 L 225.00 160.00 L 225.00 128.00 Z" fill="#5A0181" stroke="none" />
<path d="M 223.00 128.00 L 223.00 160.00 L 255.00 160.00 L 255.00 157.00 L 227.00 157.00 L 226.00 156.00 L 226.00 128.00 Z" fill="#120212" stroke="none" />
<path d="M 224.00 128.00 L 224.00 159.00 L 255.00 159.00 L 255.00 128.00 Z" fill="#1B0220" stroke="none" />
<path d="M 64.00 157.00 L 64.00 160.00 L 96.00 160.00 L 96.00 157.00 Z" fill="#9900E1" stroke="none" />
<path d="M 159.00 157.00 L 159.00 160.00 L 193.00 160.00 L 193.00 157.00 Z" fill="#9900E1" stroke="none" />
<path d="M 0.00 158.00 L 0.00 161.00 L 32.00 161.00 L 32.00 158.00 Z" fill="#530176" stroke="none" />
<path d="M 64.00 158.00 L 64.00 161.00 L 96.00 161.00 L 96.00 158.00 Z" fill="#5A0181" stroke="none" />
<path d="M 159.00 158.00 L 159.00 161.00 L 193.00 161.00 L 193.00 158.00 Z" fill="#59017E" stroke="none" />
<path d="M 223.00 158.00 L 223.00 161.00 L 255.00 161.00 L 255.00 158.00 Z" fill="#4E016F" stroke="none" />
<path d="M 0.00 159.00 L 0.00 162.00 L 32.00 162.00 L 32.00 159.00 Z" fill="#9800E0" stroke="none" />
<path d="M 65.00 159.00 L 65.00 162.00 L 95.00 162.00 L 95.00 159.00 Z" fill="#18021B" stroke="none" />
<path d="M 94.00 159.00 L 94.00 192.00 L 97.00 192.00 L 97.00 159.00 Z" fill="#4E016E" stroke="none" />
<path d="M 95.00 159.00 L 95.00 193.00 L 98.00 193.00 L 98.00 159.00 Z" fill="#9900E1" stroke="none" />
<path d="M 157.00 159.00 L 157.00 193.00 L 160.00 193.00 L 160.00 159.00 Z" fill="#9900E1" stroke="none" />
<path d="M 158.00 159.00 L 158.00 193.00 L 161.00 193.00 L 161.00 159.00 Z" fill="#59017F" stroke="none" />
<path d="M 160.00 159.00 L 160.00 162.00 L 193.00 162.00 L 193.00 159.00 Z" fill="#18021B" stroke="none" />
<path d="M 191.00 159.00 L 191.00 224.00 L 194.00 224.00 L 194.00 159.00 Z" fill="#7700AD" stroke="none" />
<path d="M 223.00 159.00 L 223.00 162.00 L 255.00 162.00 L 255.00 159.00 Z" fill="#9900E1" stroke="none" />
<path d="M 63.00 160.00 L 63.00 223.00 L 66.00 223.00 L 66.00 160.00 Z" fill="#37024B" stroke="none" />
<path d="M 64.00 160.00 L 64.00 223.00 L 65.00 224.00 L 193.00 224.00 L 193.00 160.00 L 159.00 160.00 L 159.00 191.00 L 158.00 192.00 L 97.00 192.00 L 96.00 191.00 L 96.00 160.00 Z" fill="#1B0220" stroke="none" />
<path d="M 95.00 191.00 L 95.00 194.00 L 160.00 194.00 L 160.00 191.00 Z" fill="#39024E" stroke="none" />
<path d="M 64.00 222.00 L 64.00 225.00 L 193.00 225.00 L 193.00 222.00 Z" fill="#500171" stroke="none" />
<path d="M 64.00 223.00 L 64.00 226.00 L 193.00 226.00 L 193.00 223.00 Z" fill="#9900E1" stroke="none" />
</svg>
